<svg width="30" height="31" viewBox="0 0 30 31" fill="none" xmlns="http://www.w3.org/2000/svg">
<path d="M27.3626 6.75816V21.3344C27.3626 22.5236 26.3941 23.6147 25.2049 23.7618L24.8249 23.8108C22.8144 24.0805 19.9825 24.9142 17.7022 25.8704C16.9054 26.2014 16.0227 25.6007 16.0227 24.7303V7.67761C16.0227 7.22402 16.2802 6.8072 16.6847 6.58653C18.9282 5.37287 22.324 4.29405 24.6287 4.0979H24.7023C26.1734 4.0979 27.3626 5.28705 27.3626 6.75816Z" fill="#0C1E33"/>
<path d="M13.5218 6.58653C11.2784 5.37287 7.88256 4.29405 5.57782 4.0979H5.492C4.02089 4.0979 2.83174 5.28705 2.83174 6.75816V21.3344C2.83174 22.5236 3.80022 23.6147 4.98937 23.7618L5.36941 23.8108C7.37993 24.0805 10.2118 24.9142 12.4921 25.8704C13.2889 26.2014 14.1716 25.6007 14.1716 24.7303V7.67761C14.1716 7.21176 13.9264 6.8072 13.5218 6.58653ZM6.52178 10.3011H9.28012C9.78275 10.3011 10.1996 10.7179 10.1996 11.2205C10.1996 11.7354 9.78275 12.14 9.28012 12.14H6.52178C6.01915 12.14 5.60234 11.7354 5.60234 11.2205C5.60234 10.7179 6.01915 10.3011 6.52178 10.3011ZM10.1996 15.8178H6.52178C6.01915 15.8178 5.60234 15.4132 5.60234 14.8983C5.60234 14.3957 6.01915 13.9789 6.52178 13.9789H10.1996C10.7022 13.9789 11.119 14.3957 11.119 14.8983C11.119 15.4132 10.7022 15.8178 10.1996 15.8178Z" fill="#0C1E33"/>
</svg>
