<svg width="42" height="41" viewBox="0 0 42 41" fill="none" xmlns="http://www.w3.org/2000/svg">
<path d="M32.6858 5.85428C29.4404 2.60892 26.262 2.52528 22.933 5.85428L20.9088 7.87844C20.7416 8.04573 20.6746 8.31339 20.7416 8.54759C22.0129 12.9807 25.5594 16.5271 29.9925 17.7985C30.0594 17.8152 30.1263 17.832 30.1932 17.832C30.3772 17.832 30.5445 17.7651 30.6784 17.6312L32.6858 15.6071C34.3419 13.9677 35.1449 12.3784 35.1449 10.7725C35.1616 9.11636 34.3587 7.51041 32.6858 5.85428Z" fill="#292D32"/>
<path d="M26.9826 19.321C26.4975 19.0868 26.0291 18.8526 25.5774 18.585C25.2094 18.3675 24.8581 18.1333 24.5068 17.8824C24.2224 17.6984 23.8878 17.4307 23.57 17.163C23.5365 17.1463 23.4194 17.0459 23.2856 16.9121C22.7335 16.4437 22.1146 15.8415 21.5625 15.1723C21.5123 15.1389 21.4287 15.0218 21.3116 14.8712C21.1443 14.6705 20.8599 14.3359 20.609 13.9511C20.4082 13.7002 20.174 13.3322 19.9566 12.9642C19.6889 12.5125 19.4547 12.0608 19.2205 11.5924C18.9134 10.9344 18.0498 10.7389 17.5364 11.2524L8.12942 20.6593C7.91195 20.8768 7.71121 21.295 7.66102 21.5794L6.75767 27.9865C6.59039 29.124 6.90823 30.1946 7.61084 30.914C8.21307 31.4995 9.0495 31.8173 9.95284 31.8173C10.1536 31.8173 10.3543 31.8006 10.5551 31.7671L16.9789 30.8638C17.28 30.8136 17.6982 30.6129 17.8989 30.3954L27.3214 20.9729C27.8246 20.4697 27.6355 19.604 26.9826 19.321Z" fill="#292D32"/>
</svg>
