<svg width="21" height="21" viewBox="0 0 21 21" fill="none" xmlns="http://www.w3.org/2000/svg">
<path d="M10.2846 16.903C13.8582 16.903 16.7552 14.006 16.7552 10.4323C16.7552 6.85868 13.8582 3.96167 10.2846 3.96167C6.71092 3.96167 3.8139 6.85868 3.8139 10.4323C3.8139 14.006 6.71092 16.903 10.2846 16.903Z" fill="#495D72"/>
<path d="M16.9595 17.584C16.8369 17.584 16.7143 17.5363 16.6258 17.4478L15.3589 16.1809C15.175 15.997 15.175 15.6973 15.3589 15.5066C15.5428 15.3227 15.8425 15.3227 16.0332 15.5066L17.3001 16.7735C17.484 16.9574 17.484 17.2571 17.3001 17.4478C17.2047 17.5363 17.0821 17.584 16.9595 17.584Z" fill="#495D72"/>
</svg>
