<svg width="41" height="41" viewBox="0 0 41 41" fill="none" xmlns="http://www.w3.org/2000/svg">
<path d="M15.7905 19.472C15.7403 19.472 15.7068 19.472 15.6566 19.472C15.573 19.4553 15.4559 19.4553 15.3555 19.472C10.5042 19.3214 6.84064 15.5073 6.84064 10.8066C6.84064 6.02216 10.7384 2.12439 15.5228 2.12439C20.3072 2.12439 24.205 6.02216 24.205 10.8066C24.1882 15.5073 20.5079 19.3214 15.8406 19.472C15.8239 19.472 15.8072 19.472 15.7905 19.472ZM15.5228 4.63368C12.1269 4.63368 9.34993 7.41064 9.34993 10.8066C9.34993 14.1523 11.9596 16.8456 15.2886 16.9627C15.389 16.946 15.6064 16.946 15.8239 16.9627C19.1027 16.8121 21.6789 14.1188 21.6957 10.8066C21.6957 7.41064 18.9187 4.63368 15.5228 4.63368Z" fill="#292D32"/>
<path d="M28.1361 19.6894C28.0859 19.6894 28.0357 19.6894 27.9855 19.6726C27.2996 19.7396 26.597 19.2544 26.5301 18.5686C26.4632 17.8827 26.8814 17.2637 27.5673 17.1801C27.768 17.1633 27.9855 17.1633 28.1695 17.1633C30.6119 17.0295 32.519 15.0221 32.519 12.563C32.519 10.0202 30.4614 7.9626 27.9186 7.9626C27.2327 7.97933 26.664 7.41055 26.664 6.72468C26.664 6.03881 27.2327 5.47003 27.9186 5.47003C31.8331 5.47003 35.0283 8.6652 35.0283 12.5797C35.0283 16.4273 32.0171 19.5388 28.1863 19.6894C28.1695 19.6894 28.1528 19.6894 28.1361 19.6894Z" fill="#292D32"/>
<path d="M15.8071 37.7563C12.5283 37.7563 9.23278 36.9199 6.74021 35.247C4.41493 33.708 3.14355 31.6002 3.14355 29.3083C3.14355 27.0165 4.41493 24.892 6.74021 23.3362C11.7588 20.0072 19.8889 20.0072 24.874 23.3362C27.1826 24.8753 28.4707 26.9831 28.4707 29.2749C28.4707 31.5667 27.1993 33.6912 24.874 35.247C22.3648 36.9199 19.0859 37.7563 15.8071 37.7563ZM8.12869 25.444C6.52274 26.5147 5.65285 27.8864 5.65285 29.3251C5.65285 30.747 6.53947 32.1188 8.12869 33.1727C12.2941 35.9663 19.3201 35.9663 23.4856 33.1727C25.0915 32.102 25.9614 30.7303 25.9614 29.2916C25.9614 27.8697 25.0748 26.4979 23.4856 25.444C19.3201 22.6671 12.2941 22.6671 8.12869 25.444Z" fill="#292D32"/>
<path d="M31.1472 34.7452C30.5617 34.7452 30.0431 34.3437 29.926 33.7415C29.7922 33.0556 30.2272 32.4032 30.8963 32.2526C31.9502 32.0351 32.9205 31.6169 33.6733 31.0314C34.6268 30.3121 35.1454 29.4087 35.1454 28.4552C35.1454 27.5017 34.6268 26.5983 33.69 25.8957C32.9539 25.327 32.0339 24.9255 30.9465 24.6745C30.2773 24.524 29.8424 23.8548 29.993 23.169C30.1435 22.4998 30.8127 22.0649 31.4985 22.2154C32.9372 22.5333 34.1918 23.1021 35.2123 23.8883C36.7681 25.0593 37.6547 26.7154 37.6547 28.4552C37.6547 30.195 36.7513 31.8511 35.1956 33.0389C34.1584 33.8418 32.8536 34.4273 31.4149 34.7117C31.3145 34.7452 31.2309 34.7452 31.1472 34.7452Z" fill="#292D32"/>
</svg>
